<svg width="512" height="512" viewBox="0 0 512 512" fill="none" xmlns="http://www.w3.org/2000/svg">
<path d="M152.307 128.455H220.418V302.957C220.335 319.529 216.15 334.113 207.864 346.707C199.661 359.219 188.309 368.997 173.809 376.04C159.391 383 142.778 386.48 123.969 386.48C107.645 386.48 92.7306 383.663 79.2244 378.028C65.7183 372.311 54.9465 363.362 46.9091 351.182C38.8717 338.919 34.8944 323.009 34.9773 303.455H104.082C104.331 309.835 105.408 315.221 107.314 319.612C109.303 324.004 112.037 327.318 115.517 329.555C119.08 331.71 123.389 332.787 128.443 332.787C133.58 332.787 137.889 331.668 141.369 329.431C144.932 327.194 147.625 323.879 149.448 319.488C151.271 315.013 152.224 309.503 152.307 302.957V128.455ZM400.884 208C400.221 199.714 397.114 193.251 391.562 188.611C386.093 183.971 377.766 181.651 366.58 181.651C359.454 181.651 353.612 182.521 349.055 184.261C344.581 185.918 341.266 188.196 339.112 191.097C336.958 193.997 335.839 197.311 335.756 201.04C335.59 204.106 336.129 206.881 337.372 209.367C338.698 211.77 340.769 213.966 343.586 215.955C346.404 217.86 350.008 219.6 354.4 221.175C358.791 222.749 364.011 224.158 370.06 225.401L390.941 229.875C405.027 232.858 417.083 236.794 427.109 241.683C437.135 246.571 445.338 252.33 451.718 258.959C458.099 265.505 462.78 272.879 465.763 281.082C468.829 289.286 470.403 298.234 470.486 307.929C470.403 324.667 466.219 338.836 457.933 350.436C449.647 362.036 437.798 370.861 422.386 376.91C407.057 382.959 388.621 385.983 367.077 385.983C344.953 385.983 325.647 382.71 309.158 376.164C292.752 369.618 279.991 359.551 270.877 345.962C261.845 332.29 257.288 314.806 257.205 293.511H322.83C323.244 301.3 325.191 307.846 328.672 313.149C332.152 318.452 337.04 322.471 343.338 325.205C349.718 327.94 357.3 329.307 366.083 329.307C373.457 329.307 379.63 328.395 384.602 326.572C389.574 324.75 393.344 322.222 395.912 318.991C398.481 315.759 399.807 312.072 399.89 307.929C399.807 304.035 398.522 300.637 396.037 297.737C393.634 294.754 389.656 292.103 384.105 289.783C378.553 287.38 371.054 285.143 361.608 283.071L336.253 277.602C313.715 272.714 295.942 264.552 282.933 253.117C270.007 241.6 263.585 225.898 263.668 206.011C263.585 189.854 267.894 175.726 276.594 163.629C285.377 151.448 297.516 141.961 313.011 135.166C328.589 128.372 346.445 124.974 366.58 124.974C387.129 124.974 404.903 128.413 419.9 135.29C434.898 142.168 446.457 151.862 454.577 164.374C462.78 176.803 466.923 191.345 467.006 208H400.884Z" fill="white"/>
</svg>
